<svg width="37" height="37" fill="none" xmlns="http://www.w3.org/2000/svg"><path d="M18.479 1.156a.578.578 0 00-.183.038L1.528 7.554a.578.578 0 00-.372.541v2.89a.578.578 0 00.576.576h33.531a.578.578 0 00.58-.576v-2.89a.579.579 0 00-.37-.542L18.705 1.194a.578.578 0 00-.227-.038zm.021 3.47a2.323 2.323 0 012.314 2.313A2.318 2.318 0 0118.5 9.247a2.317 2.317 0 01-2.313-2.308A2.322 2.322 0 0118.5 4.625zm-13.874 8.09v.581a.578.578 0 00.576.576h6.94a.578.578 0 00.576-.576v-.58H4.626zm19.657 0v.581a.578.578 0 00.576.576h6.939a.578.578 0 00.576-.576v-.58h-8.09zm-5.785 1.15c-.29 0-.578.192-.578.577v1.227a2.898 2.898 0 00-2.308 2.83 2.896 2.896 0 002.888 2.889c.965 0 1.733.772 1.733 1.736 0 .965-.768 1.734-1.733 1.734a1.723 1.723 0 01-1.732-1.734c-.017-.753-1.14-.753-1.156 0a2.9 2.9 0 002.308 2.831v1.215c0 .771 1.156.771 1.156 0v-1.214a2.9 2.9 0 002.314-2.832 2.9 2.9 0 00-2.89-2.892 1.723 1.723 0 01-1.732-1.734c0-.964.767-1.732 1.732-1.732s1.733.768 1.733 1.732c-.017.789 1.174.789 1.157 0a2.9 2.9 0 00-2.314-2.83v-1.226c0-.385-.29-.578-.578-.578zM5.782 15.03v11.563h5.78V15.03h-5.78zm19.658 0v11.563h5.778V15.03H25.44zM5.202 27.747a.579.579 0 00-.576.581v.578h8.092v-.578a.579.579 0 00-.576-.58h-6.94zm19.657 0a.579.579 0 00-.576.581v.578h8.09v-.578a.579.579 0 00-.575-.58h-6.939zM3.47 30.061a.578.578 0 00-.58.58v.577h31.223v-.577a.578.578 0 00-.58-.58H3.47zm-1.737 2.312a.578.578 0 00-.576.582v2.308a.578.578 0 00.576.58h33.531a.579.579 0 00.58-.58v-2.308a.579.579 0 00-.58-.582H1.733z" fill="#F8B006"/></svg>