<svg width="102" height="133" fill="none" xmlns="http://www.w3.org/2000/svg"><path d="M8.862 44v8.642m0 8.358v-8.358m0 0H0h18M8.862 80v8.642m0 8.358v-8.358m0 0H0h18M8.862 116v8.642m0 8.358v-8.358m0 0H0h18M82.862 44v8.642m0 8.358v-8.358m0 0H74h18" stroke="#A8A8A8" stroke-opacity=".5" stroke-width="2"/><path d="M82.862 80v8.642m0 8.358v-8.358m0 0H74h18" stroke="#F8B006" stroke-width="2"/><path d="M82.862 116v8.642m0 8.358v-8.358m0 0H74h18M45.861 44v8.642m0 8.358v-8.358m0 0H37h18M45.861 80v8.642m0 8.358v-8.358m0 0H37h18M45.861 116v8.642m0 8.358v-8.358m0 0H37h18" stroke="#A8A8A8" stroke-opacity=".5" stroke-width="2"/></svg>