<svg width="173" height="315" fill="none" xmlns="http://www.w3.org/2000/svg"><path d="M164.138 315v-8.642m0-8.358v8.358m0 0H173h-18M164.138 279v-8.642m0-8.358v8.358m0 0H173h-18M164.138 243v-8.642m0-8.358v8.358m0 0H173h-18M90.138 315v-8.642m0-8.358v8.358m0 0H99 81" stroke="#A8A8A8" stroke-opacity=".5" stroke-width="2"/><path d="M90.138 279v-8.642m0-8.358v8.358m0 0H99 81" stroke="#F8B006" stroke-width="2"/><path d="M90.138 243v-8.642m0-8.358v8.358m0 0H99 81M16.139 315v-8.642m0-8.358v8.358m0 0H25 7M16.139 279v-8.642m0-8.358v8.358m0 0H25 7M16.139 243v-8.642m0-8.358v8.358m0 0H25 7M127.138 315v-8.642m0-8.358v8.358m0 0H136h-18M127.138 279v-8.642m0-8.358v8.358m0 0H136h-18M127.138 243v-8.642m0-8.358v8.358m0 0H136h-18M53.139 315v-8.642m0-8.358v8.358m0 0H62 44M53.139 279v-8.642m0-8.358v8.358m0 0H62 44M53.139 243v-8.642m0-8.358v8.358m0 0H62 44m38-40.22h8.642m8.358 0h-8.358m0 0V203v-18M118 194.138h8.642m8.358 0h-8.358m0 0V203v-18M154 194.138h8.642m8.358 0h-8.358m0 0V203v-18M82 120.138h8.642m8.358 0h-8.358m0 0V129v-18" stroke="#A8A8A8" stroke-opacity=".5" stroke-width="2"/><path d="M118 120.138h8.642m8.358 0h-8.358m0 0V129v-18" stroke="#F8B006" stroke-width="2"/><path d="M154 120.138h8.642m8.358 0h-8.358m0 0V129v-18M82 46.139h8.642m8.358 0h-8.358m0 0V55 37M118 46.139h8.642m8.358 0h-8.358m0 0V55 37M154 46.139h8.642m8.358 0h-8.358m0 0V55 37M82 157.138h8.642m8.358 0h-8.358m0 0V166v-18M118 157.138h8.642m8.358 0h-8.358m0 0V166v-18M154 157.138h8.642m8.358 0h-8.358m0 0V166v-18M82 83.138h8.642m8.358 0h-8.358m0 0V92 74M118 83.138h8.642m8.358 0h-8.358m0 0V92 74M154 83.138h8.642m8.358 0h-8.358m0 0V92 74M82 9.138h8.642m8.358 0h-8.358m0 0V18 0M118 9.138h8.642m8.358 0h-8.358m0 0V18 0" stroke="#A8A8A8" stroke-opacity=".5" stroke-width="2"/><path d="M154 9.138h8.642m8.358 0h-8.358m0 0V18 0" stroke="#F8B006" stroke-width="2"/></svg>