<svg width="89" height="203" fill="none" xmlns="http://www.w3.org/2000/svg"><path d="M0 194.138h8.642m8.358 0H8.642m0 0V203v-18M36 194.138h8.642m8.358 0h-8.358m0 0V203v-18M72 194.138h8.642m8.358 0h-8.358m0 0V203v-18M0 120.138h8.642m8.358 0H8.642m0 0V129v-18" stroke="#A8A8A8" stroke-opacity=".5" stroke-width="2"/><path d="M36 120.138h8.642m8.358 0h-8.358m0 0V129v-18" stroke="#F8B006" stroke-width="2"/><path d="M72 120.138h8.642m8.358 0h-8.358m0 0V129v-18M0 46.139h8.642m8.358 0H8.642m0 0V55 37M36 46.139h8.642m8.358 0h-8.358m0 0V55 37M72 46.139h8.642m8.358 0h-8.358m0 0V55 37M0 157.138h8.642m8.358 0H8.642m0 0V166v-18M36 157.138h8.642m8.358 0h-8.358m0 0V166v-18M72 157.138h8.642m8.358 0h-8.358m0 0V166v-18M0 83.138h8.642m8.358 0H8.642m0 0V92 74M36 83.138h8.642m8.358 0h-8.358m0 0V92 74M72 83.138h8.642m8.358 0h-8.358m0 0V92 74M0 9.138h8.642m8.358 0H8.642m0 0V18 0M36 9.138h8.642m8.358 0h-8.358m0 0V18 0" stroke="#A8A8A8" stroke-opacity=".5" stroke-width="2"/><path d="M72 9.138h8.642m8.358 0h-8.358m0 0V18 0" stroke="#F8B006" stroke-width="2"/></svg>