<svg width="179" height="89" fill="none" xmlns="http://www.w3.org/2000/svg"><path d="M58.861 0v8.642m0 8.358V8.642m0 0H50h18" stroke="#A8A8A8" stroke-opacity=".5" stroke-width="2"/><path d="M58.861 36v8.642m0 8.358v-8.358m0 0H50h18" stroke="#F8B006" stroke-width="2"/><path d="M58.861 72v8.642m0 8.358v-8.358m0 0H50h18M132.862 0v8.642m0 8.358V8.642m0 0H124h18M132.862 36v8.642m0 8.358v-8.358m0 0H124h18M132.862 72v8.642m0 8.358v-8.358m0 0H124h18M21.861 0v8.642m0 8.358V8.642m0 0H13h18M21.861 36v8.642m0 8.358v-8.358m0 0H13h18M21.861 72v8.642m0 8.358v-8.358m0 0H13h18M95.862 0v8.642m0 8.358V8.642m0 0H87h18M95.862 36v8.642m0 8.358v-8.358m0 0H87h18M95.862 72v8.642m0 8.358v-8.358m0 0H87h18M169.862 0v8.642m0 8.358V8.642m0 0H161h18M169.862 36v8.642m0 8.358v-8.358m0 0H161h18" stroke="#A8A8A8" stroke-opacity=".5" stroke-width="2"/><path d="M169.862 72v8.642m0 8.358v-8.358m0 0H161h18" stroke="#F8B006" stroke-width="2"/></svg>