<svg width="139" height="61" fill="none" xmlns="http://www.w3.org/2000/svg"><path d="M6.068.059v5.917m0 5.723V5.976m0 0H0h12.325M6.068 24.709v5.917m0 5.723v-5.723m0 0H0h12.325M6.068 49.36v5.917m0 5.723v-5.723m0 0H0h12.325M56.738.059v5.917m0 5.723V5.976m0 0H50.67h12.325" stroke="#A8A8A8" stroke-opacity=".5" stroke-width="2"/><path d="M56.738 24.709v5.917m0 5.723v-5.723m0 0H50.67h12.325" stroke="#57AA68" stroke-width="2"/><path d="M56.738 49.36v5.917m0 5.723v-5.723m0 0H50.67h12.325M107.408.059v5.917m0 5.723V5.976m0 0h-6.068 12.325m-6.257 18.733v5.917m0 5.723v-5.723m0 0h-6.068 12.325m-6.257 18.734v5.917m0 5.723v-5.723m0 0h-6.068 12.325M31.403.059v5.917m0 5.723V5.976m0 0h-6.068H37.66m-6.257 18.733v5.917m0 5.723v-5.723m0 0h-6.068H37.66M31.403 49.36v5.917m0 5.723v-5.723m0 0h-6.068H37.66M82.073.059v5.917m0 5.723V5.976m0 0h-6.068H88.33m-6.257 18.733v5.917m0 5.723v-5.723m0 0h-6.068H88.33M82.073 49.36v5.917m0 5.723v-5.723m0 0h-6.068H88.33M132.743.059v5.917m0 5.723V5.976m0 0h-6.068H139m-6.257 18.733v5.917m0 5.723v-5.723m0 0h-6.068H139" stroke="#A8A8A8" stroke-opacity=".5" stroke-width="2"/><path d="M132.743 49.36v5.917m0 5.723v-5.723m0 0h-6.068H139" stroke="#57AA68" stroke-width="2"/></svg>