<svg width="30" height="30" fill="none" xmlns="http://www.w3.org/2000/svg"><path fill-rule="evenodd" clip-rule="evenodd" d="M21.387 6.27c2.6.604 3.596 2.125 4.843 4.218h-4.843V6.27zm-15.2 4.394c.508 0 .878.246.878.82a.879.879 0 01-.876.88H.879a.879.879 0 000 1.757h7.91a.879.879 0 11.004 1.758H.879a.879.879 0 100 1.758h1.933v2.636c0 .486.394.88.88.88h1.766a3.37 3.37 0 006.603 0h8.924a3.37 3.37 0 006.604 0h1.532a.879.879 0 00.879-.88V15c0-2.579-2.72-2.75-2.723-2.754h-6.77a.879.879 0 01-.878-.879V6.094H3.69a.879.879 0 00-.878.879v1.933H1.758a.879.879 0 100 1.758h4.428zm19.24 8.675c.629.63.629 1.65 0 2.28-1.013 1.011-2.751.291-2.751-1.14 0-1.432 1.738-2.152 2.75-1.14zm-15.528 0c.63.63.63 1.65 0 2.28-1.012 1.011-2.75.291-2.75-1.14 0-1.432 1.738-2.152 2.75-1.14z" fill="#F8B006"/></svg>