<svg width="47" height="47" fill="none" xmlns="http://www.w3.org/2000/svg"><g clip-path="url(#clip0)"><path fill-rule="evenodd" clip-rule="evenodd" d="M37.107 23.5c0-7.503-6.102-13.608-13.609-13.608-7.502 0-13.609 6.105-13.609 13.608 0 7.504 6.107 13.61 13.61 13.61 7.506 0 13.608-6.106 13.608-13.61zm4.758 0c0 10.127-8.24 18.364-18.367 18.364-10.126 0-18.362-8.237-18.362-18.364 0-10.126 8.236-18.364 18.362-18.364 10.126 0 18.367 8.238 18.367 18.364zm-41.3 4.826a1.632 1.632 0 01-.307-2.118l2.464-3.93a3.145 3.145 0 00.372-2.582L1.837 15.23a1.634 1.634 0 01.89-1.946L6.92 11.31a3.156 3.156 0 001.711-1.972L9.99 4.903a1.628 1.628 0 011.799-1.156l4.597.606a3.146 3.146 0 002.506-.735L22.428.622a1.63 1.63 0 012.138 0l3.542 2.996a3.146 3.146 0 002.506.735l4.597-.606a1.632 1.632 0 011.799 1.156l1.358 4.435a3.148 3.148 0 001.707 1.972l4.198 1.975a1.634 1.634 0 01.89 1.946l-1.257 4.465a3.144 3.144 0 00.372 2.582l2.459 3.93c.44.7.316 1.57-.303 2.118l-3.469 3.077a3.141 3.141 0 00-1.083 2.373l-.055 4.638a1.63 1.63 0 01-1.399 1.617l-4.584.714a3.141 3.141 0 00-2.193 1.41l-2.556 3.873a1.63 1.63 0 01-2.05.602l-4.24-1.877a3.142 3.142 0 00-2.61 0l-4.24 1.877a1.634 1.634 0 01-2.056-.602l-2.551-3.873a3.141 3.141 0 00-2.193-1.41l-4.584-.714a1.627 1.627 0 01-1.4-1.617l-.054-4.638a3.141 3.141 0 00-1.083-2.373l-3.47-3.077zm22.933-20c8.37 0 15.178 6.807 15.178 15.174 0 8.368-6.809 15.176-15.178 15.176-8.364 0-15.173-6.808-15.173-15.176 0-8.367 6.809-15.175 15.173-15.175zM6.7 23.5c0-9.262 7.539-16.797 16.798-16.797 9.264 0 16.798 7.535 16.798 16.797 0 9.263-7.534 16.798-16.798 16.798C14.24 40.298 6.7 32.763 6.7 23.5zm24.782-4.255l-9.617 9.619a.782.782 0 01-1.106 0l-5.24-5.24a.782.782 0 111.106-1.108l4.684 4.686 9.067-9.065a.781.781 0 011.106 0 .78.78 0 010 1.108z" fill="#F8B006"/></g><defs><clipPath id="clip0"><path fill="#fff" d="M0 0h47v47H0z"/></clipPath></defs></svg>