<svg width="20" height="20" fill="none" xmlns="http://www.w3.org/2000/svg"><g clip-path="url(#clip0)" fill="#fff"><path d="M18.16 2.51H1.84a1.843 1.843 0 000 3.682h16.32A1.842 1.842 0 0020 4.352a1.843 1.843 0 00-1.84-1.841zm0 5.65H1.84C.827 8.16 0 8.984 0 10s.826 1.841 1.84 1.841h16.32c1.014 0 1.84-.825 1.84-1.84a1.843 1.843 0 00-1.84-1.842zm0 5.648H1.84c-1.014 0-1.84.825-1.84 1.841 0 1.015.826 1.84 1.84 1.84h16.32c1.014 0 1.84-.825 1.84-1.84a1.843 1.843 0 00-1.84-1.841z"/></g><defs><clipPath id="clip0"><path fill="#fff" d="M0 0h20v20H0z"/></clipPath></defs></svg>