<svg width="20" height="20" fill="none" xmlns="http://www.w3.org/2000/svg"><path d="M19.94 5.877c-.049-1.064-.218-1.791-.465-2.427a4.9 4.9 0 00-1.154-1.772 4.902 4.902 0 00-1.77-1.153C15.913.278 15.186.109 14.122.06 13.057.012 12.716 0 10 0S6.944.012 5.877.06C4.813.11 4.086.278 3.45.525a4.9 4.9 0 00-1.772 1.153A4.902 4.902 0 00.525 3.45C.278 4.086.109 4.813.06 5.877.012 6.944 0 7.284 0 10s.012 3.056.06 4.123c.049 1.064.218 1.791.465 2.427a4.9 4.9 0 001.154 1.771 4.9 4.9 0 001.77 1.154c.637.247 1.364.416 2.428.465 1.067.048 1.407.06 4.123.06s3.057-.012 4.123-.06c1.065-.049 1.791-.218 2.427-.465a5.112 5.112 0 002.925-2.925c.247-.636.416-1.363.465-2.427.048-1.067.06-1.407.06-4.123s-.012-3.056-.06-4.123zm-1.8 8.164c-.045.975-.208 1.505-.344 1.857a3.311 3.311 0 01-1.898 1.898c-.353.137-.882.3-1.857.344-1.054.048-1.37.058-4.041.058-2.67 0-2.987-.01-4.041-.058-.975-.044-1.504-.207-1.857-.344a3.1 3.1 0 01-1.15-.748 3.098 3.098 0 01-.748-1.15c-.137-.352-.3-.882-.344-1.857-.048-1.054-.058-1.37-.058-4.04 0-2.671.01-2.987.058-4.042.045-.975.207-1.504.344-1.857a3.1 3.1 0 01.748-1.15 3.096 3.096 0 011.15-.748c.353-.137.882-.3 1.857-.344 1.055-.048 1.37-.058 4.041-.058 2.67 0 2.986.01 4.04.058.976.045 1.505.208 1.858.344a3.1 3.1 0 011.15.748 3.1 3.1 0 01.747 1.15c.137.353.3.882.345 1.857.048 1.055.058 1.37.058 4.041 0 2.67-.01 2.986-.058 4.041z" fill="url(#paint0_linear)"/><path d="M10 4.865a5.135 5.135 0 100 10.27 5.135 5.135 0 000-10.27zm0 8.469a3.333 3.333 0 110-6.667 3.333 3.333 0 010 6.667z" fill="url(#paint1_linear)"/><path d="M16.538 4.661a1.2 1.2 0 11-2.4 0 1.2 1.2 0 012.4 0z" fill="url(#paint2_linear)"/><defs><linearGradient id="paint0_linear" x1="1.678" y1="18.322" x2="18.322" y2="1.678" gradientUnits="userSpaceOnUse"><stop stop-color="#FFD600"/><stop offset=".5" stop-color="#FF0100"/><stop offset="1" stop-color="#D800B9"/></linearGradient><linearGradient id="paint1_linear" x1="6.369" y1="13.631" x2="13.631" y2="6.369" gradientUnits="userSpaceOnUse"><stop stop-color="#FF6400"/><stop offset=".5" stop-color="#FF0100"/><stop offset="1" stop-color="#FD0056"/></linearGradient><linearGradient id="paint2_linear" x1="14.489" y1="5.509" x2="16.186" y2="3.812" gradientUnits="userSpaceOnUse"><stop stop-color="#F30072"/><stop offset="1" stop-color="#E50097"/></linearGradient></defs></svg>