<svg width="87" height="15" fill="none" xmlns="http://www.w3.org/2000/svg"><g clip-path="url(#clip0)"><path d="M30.414 3.834a.876.876 0 01-.279-.656.85.85 0 01.28-.645.988.988 0 011.36 0 .87.87 0 01.279.645c0 .52-.43.928-.965.928-.244 0-.489-.102-.675-.272z" fill="url(#paint0_linear)"/><path d="M31.089 4.276c-.28 0-.57-.113-.79-.317a1.02 1.02 0 01-.338-.78c0-.306.116-.566.337-.77.43-.418 1.151-.418 1.605 0 .209.193.337.476.337.77-.012.61-.512 1.097-1.151 1.097zm0-1.844a.756.756 0 00-.547.215.684.684 0 00-.232.52c0 .215.081.396.22.532a.839.839 0 00.559.226c.442 0 .79-.328.79-.757a.698.698 0 00-.22-.52.889.889 0 00-.57-.216z" fill="url(#paint1_linear)"/><path d="M32.24 7.195c0-.622-.523-1.12-1.163-1.12s-1.15.51-1.15 1.131v2.806c0 .769-.28 1.38-.826 1.821a3.318 3.318 0 01-4 0c-.546-.441-.825-1.052-.825-1.821V1.358l-.012-.011c0-.034.012-.068.012-.09C24.253.633 23.729.158 23.09.17c-.605.023-1.093.498-1.116 1.086V10a4.454 4.454 0 00.72 2.5 4.802 4.802 0 001.884 1.663c.78.396 1.651.6 2.523.589.872 0 1.744-.204 2.523-.577a4.74 4.74 0 001.918-1.697 4.495 4.495 0 00.71-2.478l-.012-2.805z" fill="url(#paint2_linear)"/><path d="M27.031 14.921a5.683 5.683 0 01-2.534-.61 5.068 5.068 0 01-1.953-1.72A4.622 4.622 0 0121.8 10V1.255C21.823.577 22.392.023 23.078 0c.745-.011 1.338.532 1.372 1.245V10c0 .713.256 1.278.768 1.686a3.123 3.123 0 003.778 0c.5-.408.756-.973.756-1.686V7.206c0-.713.593-1.3 1.325-1.3.733 0 1.337.576 1.337 1.289L32.426 10a4.685 4.685 0 01-.732 2.568 4.902 4.902 0 01-1.988 1.753 6.13 6.13 0 01-2.605.6h-.07zM23.113.34h-.023c-.512.022-.93.43-.942.927V10a4.273 4.273 0 00.698 2.41 4.641 4.641 0 001.814 1.606 5.225 5.225 0 002.441.566 5.79 5.79 0 002.453-.555 4.707 4.707 0 001.849-1.629 4.334 4.334 0 00.686-2.386l-.012-2.806c0-.52-.441-.95-.988-.95a.972.972 0 00-.977.961v2.806c0 .814-.302 1.47-.883 1.957a3.48 3.48 0 01-4.22 0c-.593-.475-.896-1.131-.896-1.957V1.426l-.011-.012v-.068c0-.034 0-.068.011-.09v-.011a.984.984 0 00-1-.905z" fill="url(#paint3_linear)"/><path d="M39.437 3.608V.36H36.67v3.247h-.93v2.319h.93v9.005h2.767V5.926h1.825l.64-2.32h-2.465zM8.801 13.937a5.613 5.613 0 01-3.243 1.018c-1.988 0-3.825-1.041-4.802-2.715A4.925 4.925 0 010 9.547a5.163 5.163 0 01.744-2.703 5.586 5.586 0 012.047-1.991 5.635 5.635 0 012.767-.724 5.58 5.58 0 012.755.713 5.553 5.553 0 012.046 1.911c.5.792.768 1.708.768 2.636l-.024 5.51H8.801v-.962zM8.36 7.975A3.393 3.393 0 007.174 6.81a3.213 3.213 0 00-1.616-.419 3.15 3.15 0 00-1.605.43 3.239 3.239 0 00-1.186 1.143 2.82 2.82 0 00-.453 1.572c0 .554.151 1.097.442 1.572a3.07 3.07 0 001.186 1.143 3.02 3.02 0 001.616.441c.57 0 1.127-.147 1.616-.43A3.465 3.465 0 008.37 11.12c.29-.475.43-1.018.43-1.573a2.905 2.905 0 00-.441-1.572zm10.998-1.448c-.244-.023-.407-.045-.477-.045a3.22 3.22 0 00-1.616.43 3.12 3.12 0 00-1.174 1.142 2.82 2.82 0 00-.454 1.572L15.684 15h-2.395l-.023-5.736c0-.927.255-1.832.744-2.624 1.023-1.629 2.848-2.624 4.813-2.624l.535.045v2.466zm26.194-1.413a5.612 5.612 0 013.162-.962 5.945 5.945 0 012.419.555c.837.362 1.546.972 2.139 1.81.628.905.965 1.968.965 3.054 0 .283-.023.577-.058.86l-.035-.023v.023l-8.499.215c.163.43.407.825.744 1.142.326.328.72.577 1.151.724.372.136.756.204 1.151.204.465 0 .919-.09 1.349-.272.418-.17.79-.43 1.093-.769l2.232.837a5.433 5.433 0 01-2.011 1.799 5.713 5.713 0 01-2.663.656 5.998 5.998 0 01-2.43-.555c-.825-.362-1.535-.972-2.127-1.82a5.245 5.245 0 01-.989-3.055c0-.656.128-1.301.372-1.912a5.19 5.19 0 012.035-2.511zm.058 3.45l6.092-.136a2.956 2.956 0 00-.709-1.086 3.208 3.208 0 00-1.14-.712 3.604 3.604 0 00-1.987-.113c-1.105.339-1.837.984-2.21 1.934l-.046.113zm19.568 5.373a5.613 5.613 0 01-3.244 1.018c-1.988 0-3.825-1.041-4.802-2.715a4.924 4.924 0 01-.755-2.693 5.144 5.144 0 01.744-2.703 5.602 5.602 0 014.813-2.715 5.58 5.58 0 012.755.713 5.553 5.553 0 012.047 1.911c.5.792.767 1.708.755 2.636l-.023 5.51h-2.302v-.962h.012zm-.442-5.962a3.36 3.36 0 00-1.174-1.165 3.213 3.213 0 00-1.616-.419 3.15 3.15 0 00-1.605.43 3.152 3.152 0 00-1.186 1.143 2.82 2.82 0 00-.453 1.572c0 .554.15 1.097.442 1.572.279.476.686.872 1.185 1.143a3.02 3.02 0 001.617.441 3.15 3.15 0 001.604-.43 3.465 3.465 0 001.198-1.142c.29-.475.43-1.018.43-1.573 0-.554-.151-1.097-.442-1.572zm13.289-2.466a5.08 5.08 0 00-1.558-.984 4.494 4.494 0 00-1.721-.351 5.59 5.59 0 00-2.5.588 4.714 4.714 0 00-1.918 1.686 4.499 4.499 0 00-.71 2.488v6.052h2.303V8.936c0-.769.279-1.38.825-1.821a3.075 3.075 0 012.012-.667c.383.01.744.113 1.08.282.396.204.733.51.954.883.244.407.372.87.36 1.335V15h2.303l.046-6.052c0-.555-.093-1.109-.29-1.64-.256-1.007-1.186-1.8-1.186-1.8z" fill="#fff"/><path d="M85.558 5.509A4.945 4.945 0 0084 4.525a4.494 4.494 0 00-1.72-.351c-.872 0-1.733.203-2.5.588a4.868 4.868 0 00-1.918 1.686 4.5 4.5 0 00-.71 2.488v6.052h2.302V8.936c0-.769.268-1.38.814-1.821a3.075 3.075 0 012.012-.667c.383.01.744.113 1.08.282.396.204.733.51.954.883.244.407.372.87.36 1.335V15h2.291L87 8.948c0-.555-.093-1.109-.29-1.64-.222-1.007-1.152-1.8-1.152-1.8z" fill="#fff"/></g><defs><linearGradient id="paint0_linear" x1="30.139" y1="3.184" x2="32.054" y2="3.184" gradientUnits="userSpaceOnUse"><stop stop-color="#FB1635"/><stop offset="1" stop-color="#C01921"/></linearGradient><linearGradient id="paint1_linear" x1="29.965" y1="3.186" x2="32.229" y2="3.186" gradientUnits="userSpaceOnUse"><stop stop-color="#FB1635"/><stop offset="1" stop-color="#C01921"/></linearGradient><linearGradient id="paint2_linear" x1="21.988" y1="7.461" x2="32.266" y2="7.461" gradientUnits="userSpaceOnUse"><stop stop-color="#FB1635"/><stop offset="1" stop-color="#C01921"/></linearGradient><linearGradient id="paint3_linear" x1="21.813" y1="7.461" x2="32.441" y2="7.461" gradientUnits="userSpaceOnUse"><stop stop-color="#FB1635"/><stop offset="1" stop-color="#C01921"/></linearGradient><clipPath id="clip0"><path fill="#fff" d="M0 0h87v15H0z"/></clipPath></defs></svg>