<svg width="41" height="41" fill="none" xmlns="http://www.w3.org/2000/svg"><circle cx="20.5" cy="20.5" r="20.5" fill="#F8B006"/><g clip-path="url(#clip0)"><path d="M29.694 23.223c-.297-3.878-2.103-6.308-3.695-8.452-1.475-1.985-2.749-3.7-2.749-6.228a.542.542 0 00-.857-.441c-2.392 1.712-4.388 4.596-5.085 7.349-.484 1.916-.548 4.07-.557 5.494-2.209-.472-2.71-3.776-2.715-3.813a.544.544 0 00-.772-.41c-.116.055-2.844 1.441-3.002 6.974a9.195 9.195 0 00-.012.554c0 5.375 4.374 9.75 9.75 9.75h.029c5.362-.016 9.721-4.384 9.721-9.75 0-.27-.056-1.027-.056-1.027zM20 32.916c-1.792 0-3.25-1.553-3.25-3.462 0-.065 0-.13.004-.211.022-.805.175-1.355.342-1.72.315.675.877 1.295 1.789 1.295a.54.54 0 00.542-.541c0-.771.015-1.661.207-2.464.171-.712.58-1.47 1.097-2.077.23.788.679 1.426 1.117 2.049.627.89 1.275 1.811 1.388 3.382.007.093.014.187.014.287 0 1.909-1.458 3.462-3.25 3.462z" fill="#fff"/></g><defs><clipPath id="clip0"><path fill="#fff" transform="translate(7 8)" d="M0 0h26v26H0z"/></clipPath></defs></svg>