<svg width="57" height="57" fill="none" xmlns="http://www.w3.org/2000/svg"><path fill-rule="evenodd" clip-rule="evenodd" d="M26.826 5.33L23.137 7.4a1.138 1.138 0 01-.542.147l-4.23.052a3.413 3.413 0 00-2.897 1.674l-2.162 3.636a1.101 1.101 0 01-.397.397l-3.636 2.162a3.413 3.413 0 00-1.674 2.897l-.052 4.23a1.148 1.148 0 01-.146.542c-.472.844-1.432 2.554-2.07 3.69a3.43 3.43 0 000 3.346 2539.42 2539.42 0 012.07 3.69c.093.166.143.353.146.542l.052 4.23a3.413 3.413 0 001.674 2.897l3.636 2.162c.164.096.301.232.397.397l2.162 3.636a3.413 3.413 0 002.897 1.674l4.23.052c.189.002.376.053.542.146.844.472 2.554 1.432 3.69 2.07a3.43 3.43 0 003.346 0c1.136-.638 2.846-1.598 3.69-2.07.166-.093.353-.144.542-.146l4.23-.052a3.413 3.413 0 002.897-1.674l2.162-3.636c.096-.165.232-.301.397-.397l3.636-2.162a3.413 3.413 0 001.674-2.897l.052-4.23a1.14 1.14 0 01.146-.543l2.07-3.689a3.43 3.43 0 000-3.347c-.638-1.135-1.598-2.845-2.07-3.689a1.138 1.138 0 01-.146-.542l-.052-4.23a3.413 3.413 0 00-1.674-2.897l-3.636-2.162a1.101 1.101 0 01-.397-.397l-2.162-3.636a3.413 3.413 0 00-2.897-1.674l-4.23-.052a1.137 1.137 0 01-.543-.146 2539.42 2539.42 0 01-3.689-2.07 3.43 3.43 0 00-3.347 0zm8.514 26.59a3.421 3.421 0 103.42 3.42 3.421 3.421 0 00-3.42-3.42zm1.473-13.347l-18.24 18.24a1.144 1.144 0 000 1.614 1.144 1.144 0 001.614 0l18.24-18.24a1.144 1.144 0 000-1.614 1.144 1.144 0 00-1.614 0zM35.34 34.2a1.14 1.14 0 11-.001 2.28 1.14 1.14 0 010-2.28zM21.66 18.24a3.421 3.421 0 103.42 3.42 3.421 3.421 0 00-3.42-3.42zm0 2.28a1.14 1.14 0 11-.001 2.28 1.14 1.14 0 010-2.28z" fill="#F8B006"/></svg>