<svg width="11" height="11" fill="none" xmlns="http://www.w3.org/2000/svg"><path d="M8.985 4.235c.016-1.422-1.193-2.727-2.69-2.907a.386.386 0 01-.093-.016 1.111 1.111 0 00-.226-.023c-.304 0-.39.219-.413.344a.385.385 0 00.062.312c.102.141.281.164.421.18.04.008.078.008.117.016 1.341.304 1.8.773 2.02 2.11.007.03.007.07.007.116.008.157.031.493.39.493.03 0 .062 0 .093-.008.335-.047.32-.352.32-.5v-.11c-.008.008-.008 0-.008-.007z" fill="#fff"/><path d="M5.883.813c.039 0 .078.007.109.007 2.206.344 3.22 1.391 3.5 3.618a.798.798 0 01.007.133c0 .172.008.539.398.547h.016c.124 0 .218-.04.288-.11.125-.125.11-.312.11-.469v-.101C10.34 2.156 8.368.086 6.092.016H6.04c-.024 0-.047 0-.078-.008C5.92.008 5.883 0 5.844 0c-.359 0-.43.258-.437.414-.039.36.304.383.476.399zm3.5 6.507c-.047-.038-.094-.07-.14-.109a12.176 12.176 0 00-.749-.546l-.156-.11c-.32-.226-.6-.336-.873-.336-.366 0-.678.203-.943.602-.117.18-.257.258-.429.258a.884.884 0 01-.343-.086c-1.029-.47-1.754-1.18-2.175-2.126-.202-.453-.14-.75.219-1 .202-.14.576-.39.553-.882C4.316 2.43 3.092.75 2.577.563a1.033 1.033 0 00-.685 0C1.299.766.87 1.117.66 1.578c-.203.446-.195.977.023 1.524.647 1.586 1.552 2.969 2.69 4.11 1.114 1.117 2.494 2.03 4.084 2.718.14.063.296.094.406.118.039.007.07.015.093.023.016 0 .023.008.04.008h.015c.748 0 1.644-.688 1.925-1.469.25-.68-.195-1.016-.553-1.29zM6.21 2.625c-.125 0-.397.008-.491.282a.368.368 0 00.016.328c.078.132.233.172.374.195.499.078.764.36.81.875.024.242.187.406.398.406h.047c.25-.03.374-.21.358-.547.008-.351-.179-.742-.483-1.054-.312-.313-.686-.493-1.029-.485z" fill="#fff"/></svg>