<svg width="66" height="47" fill="none" xmlns="http://www.w3.org/2000/svg"><path d="M17.83 5.459h5.693a26.802 26.802 0 00-2.241 2.75H17.83c-1.773 0-1.773-2.75 0-2.75zm.468 27.5H9.58c-1.773 0-1.773-2.75 0-2.75h7.797c.247.935.563 1.856.92 2.75zM9.58 13.709h8.718a23.9 23.9 0 00-.921 2.75H9.58c-1.773 0-1.773-2.75 0-2.75zm6.917 8.25a22.937 22.937 0 000 2.75H1.33c-1.773 0-1.773-2.75 0-2.75h15.167zm7.026 19.25H17.83c-1.773 0-1.773-2.75 0-2.75h3.452a26.91 26.91 0 002.24 2.75zM39.83 23.334c0-3.547 5.5-3.547 5.5 0 0 3.548-5.5 3.548-5.5 0z" fill="#F8B006"/><path d="M65.914 21.959h-2.71c-1.773 0-1.773 2.75 0 2.75h2.71a23.362 23.362 0 01-5.858 14.149l-1.925-1.912c-1.25-1.251-3.188.688-1.937 1.939l1.911 1.925a23.37 23.37 0 01-14.149 5.857V43.96c0-1.774-2.75-1.774-2.75 0v2.708a23.401 23.401 0 01-13.681-5.458h5.142c1.774 0 1.774-2.75 0-2.75h-7.906a23.234 23.234 0 01-3.479-5.5h9.405c1.774 0 1.774-2.75 0-2.75h-10.45c-.55-1.788-.88-3.63-.99-5.5h9.583c1.774 0 1.774-2.75 0-2.75h-9.584c.11-1.87.439-3.713.99-5.5h10.45c1.774 0 1.774-2.75 0-2.75h-9.405a23.233 23.233 0 013.479-5.5h7.906c1.774 0 1.774-2.75 0-2.75h-5.142A23.401 23.401 0 0141.204 0v2.709c0 1.773 2.75 1.773 2.75 0V0a23.37 23.37 0 0114.15 5.857l-1.912 1.925c-1.25 1.252.688 3.19 1.938 1.94l1.925-1.912a23.364 23.364 0 015.859 14.149zm-11.66-8.346c1.25-1.252-.702-3.204-1.953-1.953l-6.93 6.93c-4.744-2.791-10.367 2.736-7.535 7.535l-1.086 1.1c-1.251 1.251.687 3.19 1.939 1.939l1.1-1.087c4.743 2.792 10.367-2.736 7.535-7.535l6.93-6.93z" fill="#F8B006"/></svg>