<svg width="0" height="0" class="hidden"><symbol fill="none" xmlns="http://www.w3.org/2000/svg" viewBox="0 0 41 41" id="logo"><circle cx="20.5" cy="20.5" r="20.5" fill="#F8B006"/><g clip-path="url(#clip0)"><path d="M29.694 23.223c-.297-3.878-2.103-6.308-3.695-8.452-1.475-1.985-2.749-3.7-2.749-6.228a.542.542 0 00-.857-.441c-2.392 1.712-4.388 4.596-5.085 7.349-.484 1.916-.548 4.07-.557 5.494-2.209-.472-2.71-3.776-2.715-3.813a.544.544 0 00-.772-.41c-.116.055-2.844 1.441-3.002 6.974a9.195 9.195 0 00-.012.554c0 5.375 4.374 9.75 9.75 9.75h.029c5.362-.016 9.721-4.384 9.721-9.75 0-.27-.056-1.027-.056-1.027zM20 32.916c-1.792 0-3.25-1.553-3.25-3.462 0-.065 0-.13.004-.211.022-.805.175-1.355.342-1.72.315.675.877 1.295 1.789 1.295a.54.54 0 00.542-.541c0-.771.015-1.661.207-2.464.171-.712.58-1.47 1.097-2.077.23.788.679 1.426 1.117 2.049.627.89 1.275 1.811 1.388 3.382.007.093.014.187.014.287 0 1.909-1.458 3.462-3.25 3.462z" fill="#fff"/></g><defs><clipPath id="clip0"><path fill="#fff" transform="translate(7 8)" d="M0 0h26v26H0z"/></clipPath></defs></symbol><symbol xmlns="http://www.w3.org/2000/svg" viewBox="0 0 13 13" id="box"><path d="M8.125 2.343V2.34l2.433 1.09L13 2.513 6.5.076 0 2.514 6.5 4.95l2.433-.912L6.5 3.036v-.002l1.625-.691zM0 3.326v7.313l6.094 2.285V5.612L0 3.326zm3.25 7.34l-1.625-.61V9.19l1.625.61v.867zm7.313-6.426v2.036l-1.626.609V4.85l-2.03.762v7.312L13 10.64V3.326l-2.438.914z" fill="currentColor"/></symbol><symbol xmlns="http://www.w3.org/2000/svg" viewBox="0 0 16 16" id="support"><path d="M14 5.71a.165.165 0 000-.043c0-2.757-2.373-5-5.293-5H7.293C4.373.667 2 2.91 2 5.667a.166.166 0 000 .043A1.333 1.333 0 001 7v1.667A1.333 1.333 0 002.333 10H3a4.667 4.667 0 004.667 4.667h.666c2.204 0 3.944-1.493 4.314-2.887.399-.171.75-.44 1.02-.78.235-.304.364-.678.366-1.063A1.333 1.333 0 0015 8.667V7a1.333 1.333 0 00-1-1.29zm-2.333 4.564a1.277 1.277 0 01-1.037 1.256 7.815 7.815 0 01-1.033.12 1 1 0 00-.93-.65h-1.29a1.03 1.03 0 00-1.024.8 1 1 0 00.98 1.2h1.334a1 1 0 00.94-.666 11.174 11.174 0 001.666-.147 3.666 3.666 0 01-2.94 1.48h-.666A3.667 3.667 0 014 10V7h1s.883 0 1-1.11A2.417 2.417 0 008.033 7h3.634v3.274zm1.273-4.607A4 4 0 009 2.334H7a4 4 0 00-3.94 3.333h-.393c0-2.39 2.073-4.333 4.626-4.333h1.414c2.553 0 4.626 1.943 4.626 4.333h-.393z" fill="currentColor"/></symbol><symbol xmlns="http://www.w3.org/2000/svg" viewBox="0 0 7 5" id="arrow"><path d="M.5 1l3 3 3-3" stroke="currentColor" fill="#fff"/></symbol><symbol xmlns="http://www.w3.org/2000/svg" viewBox="0 0 11 10" id="telegram"><path d="M.196 4.61l2.533.95.978 3.17c.064.202.313.282.473.145L5.6 7.716a.42.42 0 01.513-.016L8.66 9.56a.294.294 0 00.465-.186L10.993.36a.296.296 0 00-.4-.338L.188 4.054c-.256.097-.248.459.008.556zm3.359.45l4.954-3.066c.088-.057.184.064.104.137L4.525 5.946a.892.892 0 00-.265.507L4.124 7.49c-.016.137-.208.153-.248.016l-.537-1.891a.483.483 0 01.216-.556z" fill="currentColor"/></symbol><symbol xmlns="http://www.w3.org/2000/svg" viewBox="0 0 11 11" id="phone"><path d="M8.985 4.235c.016-1.422-1.193-2.727-2.69-2.907a.386.386 0 01-.093-.016 1.111 1.111 0 00-.226-.023c-.304 0-.39.219-.413.344a.385.385 0 00.062.312c.102.141.281.164.421.18.04.008.078.008.117.016 1.341.304 1.8.773 2.02 2.11.007.03.007.07.007.116.008.157.031.493.39.493.03 0 .062 0 .093-.008.335-.047.32-.352.32-.5v-.11c-.008.008-.008 0-.008-.007z" fill="currentColor"/><path d="M5.883.813c.039 0 .078.007.109.007 2.206.344 3.22 1.391 3.5 3.618a.798.798 0 01.007.133c0 .172.008.539.398.547h.016c.124 0 .218-.04.288-.11.125-.125.11-.312.11-.469v-.101C10.34 2.156 8.368.086 6.092.016H6.04c-.024 0-.047 0-.078-.008C5.92.008 5.883 0 5.844 0c-.359 0-.43.258-.437.414-.039.36.304.383.476.399zm3.5 6.507c-.047-.038-.094-.07-.14-.109a12.176 12.176 0 00-.749-.546l-.156-.11c-.32-.226-.6-.336-.873-.336-.366 0-.678.203-.943.602-.117.18-.257.258-.429.258a.884.884 0 01-.343-.086c-1.029-.47-1.754-1.18-2.175-2.126-.202-.453-.14-.75.219-1 .202-.14.576-.39.553-.882C4.316 2.43 3.092.75 2.577.563a1.033 1.033 0 00-.685 0C1.299.766.87 1.117.66 1.578c-.203.446-.195.977.023 1.524.647 1.586 1.552 2.969 2.69 4.11 1.114 1.117 2.494 2.03 4.084 2.718.14.063.296.094.406.118.039.007.07.015.093.023.016 0 .023.008.04.008h.015c.748 0 1.644-.688 1.925-1.469.25-.68-.195-1.016-.553-1.29zM6.21 2.625c-.125 0-.397.008-.491.282a.368.368 0 00.016.328c.078.132.233.172.374.195.499.078.764.36.81.875.024.242.187.406.398.406h.047c.25-.03.374-.21.358-.547.008-.351-.179-.742-.483-1.054-.312-.313-.686-.493-1.029-.485z" fill="currentColor"/></symbol><symbol fill="none" xmlns="http://www.w3.org/2000/svg" viewBox="0 0 20 20" id="hamburger"><g clip-path="url(#clip0)" fill="#fff"><path d="M18.16 2.51H1.84a1.843 1.843 0 000 3.682h16.32A1.842 1.842 0 0020 4.352a1.843 1.843 0 00-1.84-1.841zm0 5.65H1.84C.827 8.16 0 8.984 0 10s.826 1.841 1.84 1.841h16.32c1.014 0 1.84-.825 1.84-1.84a1.843 1.843 0 00-1.84-1.842zm0 5.648H1.84c-1.014 0-1.84.825-1.84 1.841 0 1.015.826 1.84 1.84 1.84h16.32c1.014 0 1.84-.825 1.84-1.84a1.843 1.843 0 00-1.84-1.841z"/></g><defs><clipPath id="clip0"><path fill="#fff" d="M0 0h20v20H0z"/></clipPath></defs></symbol><symbol fill="none" xmlns="http://www.w3.org/2000/svg" viewBox="0 0 139 61" id="decoration_1"><path d="M6.068.059v5.917m0 5.723V5.976m0 0H0h12.325M6.068 24.709v5.917m0 5.723v-5.723m0 0H0h12.325M6.068 49.36v5.917m0 5.723v-5.723m0 0H0h12.325M56.738.059v5.917m0 5.723V5.976m0 0H50.67h12.325" stroke="#A8A8A8" stroke-opacity=".5" stroke-width="2"/><path d="M56.738 24.709v5.917m0 5.723v-5.723m0 0H50.67h12.325" stroke="#57AA68" stroke-width="2"/><path d="M56.738 49.36v5.917m0 5.723v-5.723m0 0H50.67h12.325M107.408.059v5.917m0 5.723V5.976m0 0h-6.068 12.325m-6.257 18.733v5.917m0 5.723v-5.723m0 0h-6.068 12.325m-6.257 18.734v5.917m0 5.723v-5.723m0 0h-6.068 12.325M31.403.059v5.917m0 5.723V5.976m0 0h-6.068H37.66m-6.257 18.733v5.917m0 5.723v-5.723m0 0h-6.068H37.66M31.403 49.36v5.917m0 5.723v-5.723m0 0h-6.068H37.66M82.073.059v5.917m0 5.723V5.976m0 0h-6.068H88.33m-6.257 18.733v5.917m0 5.723v-5.723m0 0h-6.068H88.33M82.073 49.36v5.917m0 5.723v-5.723m0 0h-6.068H88.33M132.743.059v5.917m0 5.723V5.976m0 0h-6.068H139m-6.257 18.733v5.917m0 5.723v-5.723m0 0h-6.068H139" stroke="#A8A8A8" stroke-opacity=".5" stroke-width="2"/><path d="M132.743 49.36v5.917m0 5.723v-5.723m0 0h-6.068H139" stroke="#57AA68" stroke-width="2"/></symbol><symbol fill="none" xmlns="http://www.w3.org/2000/svg" viewBox="0 0 102 133" id="decoration_2"><path d="M8.862 44v8.642m0 8.358v-8.358m0 0H0h18M8.862 80v8.642m0 8.358v-8.358m0 0H0h18M8.862 116v8.642m0 8.358v-8.358m0 0H0h18M82.862 44v8.642m0 8.358v-8.358m0 0H74h18" stroke="#A8A8A8" stroke-opacity=".5" stroke-width="2"/><path d="M82.862 80v8.642m0 8.358v-8.358m0 0H74h18" stroke="#F8B006" stroke-width="2"/><path d="M82.862 116v8.642m0 8.358v-8.358m0 0H74h18M45.861 44v8.642m0 8.358v-8.358m0 0H37h18M45.861 80v8.642m0 8.358v-8.358m0 0H37h18M45.861 116v8.642m0 8.358v-8.358m0 0H37h18" stroke="#A8A8A8" stroke-opacity=".5" stroke-width="2"/></symbol><symbol fill="none" xmlns="http://www.w3.org/2000/svg" viewBox="0 0 89 203" id="decoration_4"><path d="M0 194.138h8.642m8.358 0H8.642m0 0V203v-18M36 194.138h8.642m8.358 0h-8.358m0 0V203v-18M72 194.138h8.642m8.358 0h-8.358m0 0V203v-18M0 120.138h8.642m8.358 0H8.642m0 0V129v-18" stroke="#A8A8A8" stroke-opacity=".5" stroke-width="2"/><path d="M36 120.138h8.642m8.358 0h-8.358m0 0V129v-18" stroke="#F8B006" stroke-width="2"/><path d="M72 120.138h8.642m8.358 0h-8.358m0 0V129v-18M0 46.139h8.642m8.358 0H8.642m0 0V55 37M36 46.139h8.642m8.358 0h-8.358m0 0V55 37M72 46.139h8.642m8.358 0h-8.358m0 0V55 37M0 157.138h8.642m8.358 0H8.642m0 0V166v-18M36 157.138h8.642m8.358 0h-8.358m0 0V166v-18M72 157.138h8.642m8.358 0h-8.358m0 0V166v-18M0 83.138h8.642m8.358 0H8.642m0 0V92 74M36 83.138h8.642m8.358 0h-8.358m0 0V92 74M72 83.138h8.642m8.358 0h-8.358m0 0V92 74M0 9.138h8.642m8.358 0H8.642m0 0V18 0M36 9.138h8.642m8.358 0h-8.358m0 0V18 0" stroke="#A8A8A8" stroke-opacity=".5" stroke-width="2"/><path d="M72 9.138h8.642m8.358 0h-8.358m0 0V18 0" stroke="#F8B006" stroke-width="2"/></symbol><symbol fill="none" xmlns="http://www.w3.org/2000/svg" viewBox="0 0 179 89" id="decoration_3"><path d="M58.861 0v8.642m0 8.358V8.642m0 0H50h18" stroke="#A8A8A8" stroke-opacity=".5" stroke-width="2"/><path d="M58.861 36v8.642m0 8.358v-8.358m0 0H50h18" stroke="#F8B006" stroke-width="2"/><path d="M58.861 72v8.642m0 8.358v-8.358m0 0H50h18M132.862 0v8.642m0 8.358V8.642m0 0H124h18M132.862 36v8.642m0 8.358v-8.358m0 0H124h18M132.862 72v8.642m0 8.358v-8.358m0 0H124h18M21.861 0v8.642m0 8.358V8.642m0 0H13h18M21.861 36v8.642m0 8.358v-8.358m0 0H13h18M21.861 72v8.642m0 8.358v-8.358m0 0H13h18M95.862 0v8.642m0 8.358V8.642m0 0H87h18M95.862 36v8.642m0 8.358v-8.358m0 0H87h18M95.862 72v8.642m0 8.358v-8.358m0 0H87h18M169.862 0v8.642m0 8.358V8.642m0 0H161h18M169.862 36v8.642m0 8.358v-8.358m0 0H161h18" stroke="#A8A8A8" stroke-opacity=".5" stroke-width="2"/><path d="M169.862 72v8.642m0 8.358v-8.358m0 0H161h18" stroke="#F8B006" stroke-width="2"/></symbol><symbol fill="none" xmlns="http://www.w3.org/2000/svg" viewBox="0 0 20 20" id="instagram"><path d="M19.94 5.877c-.049-1.064-.218-1.791-.465-2.427a4.9 4.9 0 00-1.154-1.772 4.902 4.902 0 00-1.77-1.153C15.913.278 15.186.109 14.122.06 13.057.012 12.716 0 10 0S6.944.012 5.877.06C4.813.11 4.086.278 3.45.525a4.9 4.9 0 00-1.772 1.153A4.902 4.902 0 00.525 3.45C.278 4.086.109 4.813.06 5.877.012 6.944 0 7.284 0 10s.012 3.056.06 4.123c.049 1.064.218 1.791.465 2.427a4.9 4.9 0 001.154 1.771 4.9 4.9 0 001.77 1.154c.637.247 1.364.416 2.428.465 1.067.048 1.407.06 4.123.06s3.057-.012 4.123-.06c1.065-.049 1.791-.218 2.427-.465a5.112 5.112 0 002.925-2.925c.247-.636.416-1.363.465-2.427.048-1.067.06-1.407.06-4.123s-.012-3.056-.06-4.123zm-1.8 8.164c-.045.975-.208 1.505-.344 1.857a3.311 3.311 0 01-1.898 1.898c-.353.137-.882.3-1.857.344-1.054.048-1.37.058-4.041.058-2.67 0-2.987-.01-4.041-.058-.975-.044-1.504-.207-1.857-.344a3.1 3.1 0 01-1.15-.748 3.098 3.098 0 01-.748-1.15c-.137-.352-.3-.882-.344-1.857-.048-1.054-.058-1.37-.058-4.04 0-2.671.01-2.987.058-4.042.045-.975.207-1.504.344-1.857a3.1 3.1 0 01.748-1.15 3.096 3.096 0 011.15-.748c.353-.137.882-.3 1.857-.344 1.055-.048 1.37-.058 4.041-.058 2.67 0 2.986.01 4.04.058.976.045 1.505.208 1.858.344a3.1 3.1 0 011.15.748 3.1 3.1 0 01.747 1.15c.137.353.3.882.345 1.857.048 1.055.058 1.37.058 4.041 0 2.67-.01 2.986-.058 4.041z" fill="url(#paint0_linear)"/><path d="M10 4.865a5.135 5.135 0 100 10.27 5.135 5.135 0 000-10.27zm0 8.469a3.333 3.333 0 110-6.667 3.333 3.333 0 010 6.667z" fill="url(#paint1_linear)"/><path d="M16.538 4.661a1.2 1.2 0 11-2.4 0 1.2 1.2 0 012.4 0z" fill="url(#paint2_linear)"/><defs><linearGradient id="paint0_linear" x1="1.678" y1="18.322" x2="18.322" y2="1.678" gradientUnits="userSpaceOnUse"><stop stop-color="#FFD600"/><stop offset=".5" stop-color="#FF0100"/><stop offset="1" stop-color="#D800B9"/></linearGradient><linearGradient id="paint1_linear" x1="6.369" y1="13.631" x2="13.631" y2="6.369" gradientUnits="userSpaceOnUse"><stop stop-color="#FF6400"/><stop offset=".5" stop-color="#FF0100"/><stop offset="1" stop-color="#FD0056"/></linearGradient><linearGradient id="paint2_linear" x1="14.489" y1="5.509" x2="16.186" y2="3.812" gradientUnits="userSpaceOnUse"><stop stop-color="#F30072"/><stop offset="1" stop-color="#E50097"/></linearGradient></defs></symbol><symbol fill="none" xmlns="http://www.w3.org/2000/svg" viewBox="0 0 20 20" id="facebook"><path d="M15 6.875h-3.75v-2.5c0-.69.56-1.25 1.25-1.25h1.25V0h-2.5A3.75 3.75 0 007.5 3.75v3.125H5V10h2.5v10h3.75V10h2.5L15 6.875z" fill="#1976D2"/></symbol><symbol fill="none" xmlns="http://www.w3.org/2000/svg" viewBox="0 0 87 15" id="logodev"><g clip-path="url(#clip0)"><path d="M30.414 3.834a.876.876 0 01-.279-.656.85.85 0 01.28-.645.988.988 0 011.36 0 .87.87 0 01.279.645c0 .52-.43.928-.965.928-.244 0-.489-.102-.675-.272z" fill="url(#paint0_linear)"/><path d="M31.089 4.276c-.28 0-.57-.113-.79-.317a1.02 1.02 0 01-.338-.78c0-.306.116-.566.337-.77.43-.418 1.151-.418 1.605 0 .209.193.337.476.337.77-.012.61-.512 1.097-1.151 1.097zm0-1.844a.756.756 0 00-.547.215.684.684 0 00-.232.52c0 .215.081.396.22.532a.839.839 0 00.559.226c.442 0 .79-.328.79-.757a.698.698 0 00-.22-.52.889.889 0 00-.57-.216z" fill="url(#paint1_linear)"/><path d="M32.24 7.195c0-.622-.523-1.12-1.163-1.12s-1.15.51-1.15 1.131v2.806c0 .769-.28 1.38-.826 1.821a3.318 3.318 0 01-4 0c-.546-.441-.825-1.052-.825-1.821V1.358l-.012-.011c0-.034.012-.068.012-.09C24.253.633 23.729.158 23.09.17c-.605.023-1.093.498-1.116 1.086V10a4.454 4.454 0 00.72 2.5 4.802 4.802 0 001.884 1.663c.78.396 1.651.6 2.523.589.872 0 1.744-.204 2.523-.577a4.74 4.74 0 001.918-1.697 4.495 4.495 0 00.71-2.478l-.012-2.805z" fill="url(#paint2_linear)"/><path d="M27.031 14.921a5.683 5.683 0 01-2.534-.61 5.068 5.068 0 01-1.953-1.72A4.622 4.622 0 0121.8 10V1.255C21.823.577 22.392.023 23.078 0c.745-.011 1.338.532 1.372 1.245V10c0 .713.256 1.278.768 1.686a3.123 3.123 0 003.778 0c.5-.408.756-.973.756-1.686V7.206c0-.713.593-1.3 1.325-1.3.733 0 1.337.576 1.337 1.289L32.426 10a4.685 4.685 0 01-.732 2.568 4.902 4.902 0 01-1.988 1.753 6.13 6.13 0 01-2.605.6h-.07zM23.113.34h-.023c-.512.022-.93.43-.942.927V10a4.273 4.273 0 00.698 2.41 4.641 4.641 0 001.814 1.606 5.225 5.225 0 002.441.566 5.79 5.79 0 002.453-.555 4.707 4.707 0 001.849-1.629 4.334 4.334 0 00.686-2.386l-.012-2.806c0-.52-.441-.95-.988-.95a.972.972 0 00-.977.961v2.806c0 .814-.302 1.47-.883 1.957a3.48 3.48 0 01-4.22 0c-.593-.475-.896-1.131-.896-1.957V1.426l-.011-.012v-.068c0-.034 0-.068.011-.09v-.011a.984.984 0 00-1-.905z" fill="url(#paint3_linear)"/><path d="M39.437 3.608V.36H36.67v3.247h-.93v2.319h.93v9.005h2.767V5.926h1.825l.64-2.32h-2.465zM8.801 13.937a5.613 5.613 0 01-3.243 1.018c-1.988 0-3.825-1.041-4.802-2.715A4.925 4.925 0 010 9.547a5.163 5.163 0 01.744-2.703 5.586 5.586 0 012.047-1.991 5.635 5.635 0 012.767-.724 5.58 5.58 0 012.755.713 5.553 5.553 0 012.046 1.911c.5.792.768 1.708.768 2.636l-.024 5.51H8.801v-.962zM8.36 7.975A3.393 3.393 0 007.174 6.81a3.213 3.213 0 00-1.616-.419 3.15 3.15 0 00-1.605.43 3.239 3.239 0 00-1.186 1.143 2.82 2.82 0 00-.453 1.572c0 .554.151 1.097.442 1.572a3.07 3.07 0 001.186 1.143 3.02 3.02 0 001.616.441c.57 0 1.127-.147 1.616-.43A3.465 3.465 0 008.37 11.12c.29-.475.43-1.018.43-1.573a2.905 2.905 0 00-.441-1.572zm10.998-1.448c-.244-.023-.407-.045-.477-.045a3.22 3.22 0 00-1.616.43 3.12 3.12 0 00-1.174 1.142 2.82 2.82 0 00-.454 1.572L15.684 15h-2.395l-.023-5.736c0-.927.255-1.832.744-2.624 1.023-1.629 2.848-2.624 4.813-2.624l.535.045v2.466zm26.194-1.413a5.612 5.612 0 013.162-.962 5.945 5.945 0 012.419.555c.837.362 1.546.972 2.139 1.81.628.905.965 1.968.965 3.054 0 .283-.023.577-.058.86l-.035-.023v.023l-8.499.215c.163.43.407.825.744 1.142.326.328.72.577 1.151.724.372.136.756.204 1.151.204.465 0 .919-.09 1.349-.272.418-.17.79-.43 1.093-.769l2.232.837a5.433 5.433 0 01-2.011 1.799 5.713 5.713 0 01-2.663.656 5.998 5.998 0 01-2.43-.555c-.825-.362-1.535-.972-2.127-1.82a5.245 5.245 0 01-.989-3.055c0-.656.128-1.301.372-1.912a5.19 5.19 0 012.035-2.511zm.058 3.45l6.092-.136a2.956 2.956 0 00-.709-1.086 3.208 3.208 0 00-1.14-.712 3.604 3.604 0 00-1.987-.113c-1.105.339-1.837.984-2.21 1.934l-.046.113zm19.568 5.373a5.613 5.613 0 01-3.244 1.018c-1.988 0-3.825-1.041-4.802-2.715a4.924 4.924 0 01-.755-2.693 5.144 5.144 0 01.744-2.703 5.602 5.602 0 014.813-2.715 5.58 5.58 0 012.755.713 5.553 5.553 0 012.047 1.911c.5.792.767 1.708.755 2.636l-.023 5.51h-2.302v-.962h.012zm-.442-5.962a3.36 3.36 0 00-1.174-1.165 3.213 3.213 0 00-1.616-.419 3.15 3.15 0 00-1.605.43 3.152 3.152 0 00-1.186 1.143 2.82 2.82 0 00-.453 1.572c0 .554.15 1.097.442 1.572.279.476.686.872 1.185 1.143a3.02 3.02 0 001.617.441 3.15 3.15 0 001.604-.43 3.465 3.465 0 001.198-1.142c.29-.475.43-1.018.43-1.573 0-.554-.151-1.097-.442-1.572zm13.289-2.466a5.08 5.08 0 00-1.558-.984 4.494 4.494 0 00-1.721-.351 5.59 5.59 0 00-2.5.588 4.714 4.714 0 00-1.918 1.686 4.499 4.499 0 00-.71 2.488v6.052h2.303V8.936c0-.769.279-1.38.825-1.821a3.075 3.075 0 012.012-.667c.383.01.744.113 1.08.282.396.204.733.51.954.883.244.407.372.87.36 1.335V15h2.303l.046-6.052c0-.555-.093-1.109-.29-1.64-.256-1.007-1.186-1.8-1.186-1.8z" fill="#fff"/><path d="M85.558 5.509A4.945 4.945 0 0084 4.525a4.494 4.494 0 00-1.72-.351c-.872 0-1.733.203-2.5.588a4.868 4.868 0 00-1.918 1.686 4.5 4.5 0 00-.71 2.488v6.052h2.302V8.936c0-.769.268-1.38.814-1.821a3.075 3.075 0 012.012-.667c.383.01.744.113 1.08.282.396.204.733.51.954.883.244.407.372.87.36 1.335V15h2.291L87 8.948c0-.555-.093-1.109-.29-1.64-.222-1.007-1.152-1.8-1.152-1.8z" fill="#fff"/></g><defs><linearGradient id="paint0_linear" x1="30.139" y1="3.184" x2="32.054" y2="3.184" gradientUnits="userSpaceOnUse"><stop stop-color="#FB1635"/><stop offset="1" stop-color="#C01921"/></linearGradient><linearGradient id="paint1_linear" x1="29.965" y1="3.186" x2="32.229" y2="3.186" gradientUnits="userSpaceOnUse"><stop stop-color="#FB1635"/><stop offset="1" stop-color="#C01921"/></linearGradient><linearGradient id="paint2_linear" x1="21.988" y1="7.461" x2="32.266" y2="7.461" gradientUnits="userSpaceOnUse"><stop stop-color="#FB1635"/><stop offset="1" stop-color="#C01921"/></linearGradient><linearGradient id="paint3_linear" x1="21.813" y1="7.461" x2="32.441" y2="7.461" gradientUnits="userSpaceOnUse"><stop stop-color="#FB1635"/><stop offset="1" stop-color="#C01921"/></linearGradient><clipPath id="clip0"><path fill="#fff" d="M0 0h87v15H0z"/></clipPath></defs></symbol><symbol fill="none" xmlns="http://www.w3.org/2000/svg" viewBox="0 0 89 203" id="decoration_4"><path d="M0 194.138h8.642m8.358 0H8.642m0 0V203v-18M36 194.138h8.642m8.358 0h-8.358m0 0V203v-18M72 194.138h8.642m8.358 0h-8.358m0 0V203v-18M0 120.138h8.642m8.358 0H8.642m0 0V129v-18" stroke="#A8A8A8" stroke-opacity=".5" stroke-width="2"/><path d="M36 120.138h8.642m8.358 0h-8.358m0 0V129v-18" stroke="#F8B006" stroke-width="2"/><path d="M72 120.138h8.642m8.358 0h-8.358m0 0V129v-18M0 46.139h8.642m8.358 0H8.642m0 0V55 37M36 46.139h8.642m8.358 0h-8.358m0 0V55 37M72 46.139h8.642m8.358 0h-8.358m0 0V55 37M0 157.138h8.642m8.358 0H8.642m0 0V166v-18M36 157.138h8.642m8.358 0h-8.358m0 0V166v-18M72 157.138h8.642m8.358 0h-8.358m0 0V166v-18M0 83.138h8.642m8.358 0H8.642m0 0V92 74M36 83.138h8.642m8.358 0h-8.358m0 0V92 74M72 83.138h8.642m8.358 0h-8.358m0 0V92 74M0 9.138h8.642m8.358 0H8.642m0 0V18 0M36 9.138h8.642m8.358 0h-8.358m0 0V18 0" stroke="#A8A8A8" stroke-opacity=".5" stroke-width="2"/><path d="M72 9.138h8.642m8.358 0h-8.358m0 0V18 0" stroke="#F8B006" stroke-width="2"/></symbol><symbol fill="none" xmlns="http://www.w3.org/2000/svg" viewBox="0 0 18 89" id="decoration_5"><path d="M9.138 89v-8.642m0-8.358v8.358m0 0H18 0M9.138 53v-8.642m0-8.358v8.358m0 0H18 0M9.138 17V8.358m0-8.358v8.358m0 0H18 0" stroke="#A8A8A8" stroke-opacity=".5" stroke-width="2"/></symbol><symbol fill="none" xmlns="http://www.w3.org/2000/svg" viewBox="0 0 173 315" id="decoration_6"><path d="M164.138 315v-8.642m0-8.358v8.358m0 0H173h-18M164.138 279v-8.642m0-8.358v8.358m0 0H173h-18M164.138 243v-8.642m0-8.358v8.358m0 0H173h-18M90.138 315v-8.642m0-8.358v8.358m0 0H99 81" stroke="#A8A8A8" stroke-opacity=".5" stroke-width="2"/><path d="M90.138 279v-8.642m0-8.358v8.358m0 0H99 81" stroke="#F8B006" stroke-width="2"/><path d="M90.138 243v-8.642m0-8.358v8.358m0 0H99 81M16.139 315v-8.642m0-8.358v8.358m0 0H25 7M16.139 279v-8.642m0-8.358v8.358m0 0H25 7M16.139 243v-8.642m0-8.358v8.358m0 0H25 7M127.138 315v-8.642m0-8.358v8.358m0 0H136h-18M127.138 279v-8.642m0-8.358v8.358m0 0H136h-18M127.138 243v-8.642m0-8.358v8.358m0 0H136h-18M53.139 315v-8.642m0-8.358v8.358m0 0H62 44M53.139 279v-8.642m0-8.358v8.358m0 0H62 44M53.139 243v-8.642m0-8.358v8.358m0 0H62 44m38-40.22h8.642m8.358 0h-8.358m0 0V203v-18M118 194.138h8.642m8.358 0h-8.358m0 0V203v-18M154 194.138h8.642m8.358 0h-8.358m0 0V203v-18M82 120.138h8.642m8.358 0h-8.358m0 0V129v-18" stroke="#A8A8A8" stroke-opacity=".5" stroke-width="2"/><path d="M118 120.138h8.642m8.358 0h-8.358m0 0V129v-18" stroke="#F8B006" stroke-width="2"/><path d="M154 120.138h8.642m8.358 0h-8.358m0 0V129v-18M82 46.139h8.642m8.358 0h-8.358m0 0V55 37M118 46.139h8.642m8.358 0h-8.358m0 0V55 37M154 46.139h8.642m8.358 0h-8.358m0 0V55 37M82 157.138h8.642m8.358 0h-8.358m0 0V166v-18M118 157.138h8.642m8.358 0h-8.358m0 0V166v-18M154 157.138h8.642m8.358 0h-8.358m0 0V166v-18M82 83.138h8.642m8.358 0h-8.358m0 0V92 74M118 83.138h8.642m8.358 0h-8.358m0 0V92 74M154 83.138h8.642m8.358 0h-8.358m0 0V92 74M82 9.138h8.642m8.358 0h-8.358m0 0V18 0M118 9.138h8.642m8.358 0h-8.358m0 0V18 0" stroke="#A8A8A8" stroke-opacity=".5" stroke-width="2"/><path d="M154 9.138h8.642m8.358 0h-8.358m0 0V18 0" stroke="#F8B006" stroke-width="2"/></symbol><symbol fill="none" xmlns="http://www.w3.org/2000/svg" viewBox="0 0 179 89" id="decoration_3"><path d="M58.861 0v8.642m0 8.358V8.642m0 0H50h18" stroke="#A8A8A8" stroke-opacity=".5" stroke-width="2"/><path d="M58.861 36v8.642m0 8.358v-8.358m0 0H50h18" stroke="#F8B006" stroke-width="2"/><path d="M58.861 72v8.642m0 8.358v-8.358m0 0H50h18M132.862 0v8.642m0 8.358V8.642m0 0H124h18M132.862 36v8.642m0 8.358v-8.358m0 0H124h18M132.862 72v8.642m0 8.358v-8.358m0 0H124h18M21.861 0v8.642m0 8.358V8.642m0 0H13h18M21.861 36v8.642m0 8.358v-8.358m0 0H13h18M21.861 72v8.642m0 8.358v-8.358m0 0H13h18M95.862 0v8.642m0 8.358V8.642m0 0H87h18M95.862 36v8.642m0 8.358v-8.358m0 0H87h18M95.862 72v8.642m0 8.358v-8.358m0 0H87h18M169.862 0v8.642m0 8.358V8.642m0 0H161h18M169.862 36v8.642m0 8.358v-8.358m0 0H161h18" stroke="#A8A8A8" stroke-opacity=".5" stroke-width="2"/><path d="M169.862 72v8.642m0 8.358v-8.358m0 0H161h18" stroke="#F8B006" stroke-width="2"/></symbol><symbol xmlns="http://www.w3.org/2000/svg" viewBox="0 0 14 14" id="mail"><path d="M9.28 7.072L14 10.055V3.962l-4.72 3.11zM0 3.962v6.093l4.72-2.983L0 3.962zm13.125-1.774H.875a.864.864 0 00-.849.744L7 7.527l6.974-4.595a.864.864 0 00-.849-.744zM8.479 7.6l-1.239.816a.437.437 0 01-.48 0L5.52 7.6.028 11.074a.863.863 0 00.847.739h12.25c.435 0 .78-.323.847-.739L8.479 7.6z" fill="currentColor"/></symbol><symbol fill="none" xmlns="http://www.w3.org/2000/svg" viewBox="0 0 89 203" id="decoration_7"><path d="M0 194.138h8.642m8.358 0H8.642m0 0V203v-18M36 194.138h8.642m8.358 0h-8.358m0 0V203v-18M72 194.138h8.642m8.358 0h-8.358m0 0V203v-18M0 120.138h8.642m8.358 0H8.642m0 0V129v-18" stroke="#A8A8A8" stroke-opacity=".5" stroke-width="2"/><path d="M36 120.138h8.642m8.358 0h-8.358m0 0V129v-18" stroke="#F8B006" stroke-width="2"/><path d="M72 120.138h8.642m8.358 0h-8.358m0 0V129v-18M0 46.139h8.642m8.358 0H8.642m0 0V55 37M36 46.139h8.642m8.358 0h-8.358m0 0V55 37M72 46.139h8.642m8.358 0h-8.358m0 0V55 37M0 157.138h8.642m8.358 0H8.642m0 0V166v-18M36 157.138h8.642m8.358 0h-8.358m0 0V166v-18M72 157.138h8.642m8.358 0h-8.358m0 0V166v-18M0 83.138h8.642m8.358 0H8.642m0 0V92 74M36 83.138h8.642m8.358 0h-8.358m0 0V92 74M72 83.138h8.642m8.358 0h-8.358m0 0V92 74M0 9.138h8.642m8.358 0H8.642m0 0V18 0M36 9.138h8.642m8.358 0h-8.358m0 0V18 0" stroke="#A8A8A8" stroke-opacity=".5" stroke-width="2"/><path d="M72 9.138h8.642m8.358 0h-8.358m0 0V18 0" stroke="#F8B006" stroke-width="2"/></symbol><symbol fill="none" xmlns="http://www.w3.org/2000/svg" viewBox="0 0 179 89" id="decoration_8"><path d="M58.861 0v8.642m0 8.358V8.642m0 0H50h18" stroke="#A8A8A8" stroke-opacity=".5" stroke-width="2"/><path d="M58.861 36v8.642m0 8.358v-8.358m0 0H50h18" stroke="#F8B006" stroke-width="2"/><path d="M58.861 72v8.642m0 8.358v-8.358m0 0H50h18M132.862 0v8.642m0 8.358V8.642m0 0H124h18M132.862 36v8.642m0 8.358v-8.358m0 0H124h18M132.862 72v8.642m0 8.358v-8.358m0 0H124h18M21.861 0v8.642m0 8.358V8.642m0 0H13h18M21.861 36v8.642m0 8.358v-8.358m0 0H13h18M21.861 72v8.642m0 8.358v-8.358m0 0H13h18M95.862 0v8.642m0 8.358V8.642m0 0H87h18M95.862 36v8.642m0 8.358v-8.358m0 0H87h18M95.862 72v8.642m0 8.358v-8.358m0 0H87h18M169.862 0v8.642m0 8.358V8.642m0 0H161h18M169.862 36v8.642m0 8.358v-8.358m0 0H161h18" stroke="#A8A8A8" stroke-opacity=".5" stroke-width="2"/><path d="M169.862 72v8.642m0 8.358v-8.358m0 0H161h18" stroke="#F8B006" stroke-width="2"/></symbol><symbol xmlns="http://www.w3.org/2000/svg" viewBox="0 0 42 42" id="card"><path d="M2.625 15.75V7.875h36.75v7.875H2.625zm36.75 2.625v15.75H2.625v-15.75h36.75zm-5.25 7.875H26.25v2.625h7.875V26.25z" fill="currentColor"/></symbol><symbol xmlns="http://www.w3.org/2000/svg" viewBox="0 0 37 37" id="bank"><path d="M18.479 1.156a.578.578 0 00-.183.038L1.528 7.554a.578.578 0 00-.372.541v2.89a.578.578 0 00.576.576h33.531a.578.578 0 00.58-.576v-2.89a.579.579 0 00-.37-.542L18.705 1.194a.578.578 0 00-.227-.038zm.021 3.47a2.323 2.323 0 012.314 2.313A2.318 2.318 0 0118.5 9.247a2.317 2.317 0 01-2.313-2.308A2.322 2.322 0 0118.5 4.625zm-13.874 8.09v.581a.578.578 0 00.576.576h6.94a.578.578 0 00.576-.576v-.58H4.626zm19.657 0v.581a.578.578 0 00.576.576h6.939a.578.578 0 00.576-.576v-.58h-8.09zm-5.785 1.15c-.29 0-.578.192-.578.577v1.227a2.898 2.898 0 00-2.308 2.83 2.896 2.896 0 002.888 2.889c.965 0 1.733.772 1.733 1.736 0 .965-.768 1.734-1.733 1.734a1.723 1.723 0 01-1.732-1.734c-.017-.753-1.14-.753-1.156 0a2.9 2.9 0 002.308 2.831v1.215c0 .771 1.156.771 1.156 0v-1.214a2.9 2.9 0 002.314-2.832 2.9 2.9 0 00-2.89-2.892 1.723 1.723 0 01-1.732-1.734c0-.964.767-1.732 1.732-1.732s1.733.768 1.733 1.732c-.017.789 1.174.789 1.157 0a2.9 2.9 0 00-2.314-2.83v-1.226c0-.385-.29-.578-.578-.578zM5.782 15.03v11.563h5.78V15.03h-5.78zm19.658 0v11.563h5.778V15.03H25.44zM5.202 27.747a.579.579 0 00-.576.581v.578h8.092v-.578a.579.579 0 00-.576-.58h-6.94zm19.657 0a.579.579 0 00-.576.581v.578h8.09v-.578a.579.579 0 00-.575-.58h-6.939zM3.47 30.061a.578.578 0 00-.58.58v.577h31.223v-.577a.578.578 0 00-.58-.58H3.47zm-1.737 2.312a.578.578 0 00-.576.582v2.308a.578.578 0 00.576.58h33.531a.579.579 0 00.58-.58v-2.308a.579.579 0 00-.58-.582H1.733z" fill="currentColor"/></symbol><symbol xmlns="http://www.w3.org/2000/svg" viewBox="0 0 57 57" id="offers"><path fill-rule="evenodd" clip-rule="evenodd" d="M26.826 5.33L23.137 7.4a1.138 1.138 0 01-.542.147l-4.23.052a3.413 3.413 0 00-2.897 1.674l-2.162 3.636a1.101 1.101 0 01-.397.397l-3.636 2.162a3.413 3.413 0 00-1.674 2.897l-.052 4.23a1.148 1.148 0 01-.146.542c-.472.844-1.432 2.554-2.07 3.69a3.43 3.43 0 000 3.346 2539.42 2539.42 0 012.07 3.69c.093.166.143.353.146.542l.052 4.23a3.413 3.413 0 001.674 2.897l3.636 2.162c.164.096.301.232.397.397l2.162 3.636a3.413 3.413 0 002.897 1.674l4.23.052c.189.002.376.053.542.146.844.472 2.554 1.432 3.69 2.07a3.43 3.43 0 003.346 0c1.136-.638 2.846-1.598 3.69-2.07.166-.093.353-.144.542-.146l4.23-.052a3.413 3.413 0 002.897-1.674l2.162-3.636c.096-.165.232-.301.397-.397l3.636-2.162a3.413 3.413 0 001.674-2.897l.052-4.23a1.14 1.14 0 01.146-.543l2.07-3.689a3.43 3.43 0 000-3.347c-.638-1.135-1.598-2.845-2.07-3.689a1.138 1.138 0 01-.146-.542l-.052-4.23a3.413 3.413 0 00-1.674-2.897l-3.636-2.162a1.101 1.101 0 01-.397-.397l-2.162-3.636a3.413 3.413 0 00-2.897-1.674l-4.23-.052a1.137 1.137 0 01-.543-.146 2539.42 2539.42 0 01-3.689-2.07 3.43 3.43 0 00-3.347 0zm8.514 26.59a3.421 3.421 0 103.42 3.42 3.421 3.421 0 00-3.42-3.42zm1.473-13.347l-18.24 18.24a1.144 1.144 0 000 1.614 1.144 1.144 0 001.614 0l18.24-18.24a1.144 1.144 0 000-1.614 1.144 1.144 0 00-1.614 0zM35.34 34.2a1.14 1.14 0 11-.001 2.28 1.14 1.14 0 010-2.28zM21.66 18.24a3.421 3.421 0 103.42 3.42 3.421 3.421 0 00-3.42-3.42zm0 2.28a1.14 1.14 0 11-.001 2.28 1.14 1.14 0 010-2.28z" fill="currentColor"/></symbol><symbol xmlns="http://www.w3.org/2000/svg" viewBox="0 0 66 47" id="speedometr"><path d="M17.83 5.459h5.693a26.802 26.802 0 00-2.241 2.75H17.83c-1.773 0-1.773-2.75 0-2.75zm.468 27.5H9.58c-1.773 0-1.773-2.75 0-2.75h7.797c.247.935.563 1.856.92 2.75zM9.58 13.709h8.718a23.9 23.9 0 00-.921 2.75H9.58c-1.773 0-1.773-2.75 0-2.75zm6.917 8.25a22.937 22.937 0 000 2.75H1.33c-1.773 0-1.773-2.75 0-2.75h15.167zm7.026 19.25H17.83c-1.773 0-1.773-2.75 0-2.75h3.452a26.91 26.91 0 002.24 2.75zM39.83 23.334c0-3.547 5.5-3.547 5.5 0 0 3.548-5.5 3.548-5.5 0z" fill="currentColor"/><path d="M65.914 21.959h-2.71c-1.773 0-1.773 2.75 0 2.75h2.71a23.362 23.362 0 01-5.858 14.149l-1.925-1.912c-1.25-1.251-3.188.688-1.937 1.939l1.911 1.925a23.37 23.37 0 01-14.149 5.857V43.96c0-1.774-2.75-1.774-2.75 0v2.708a23.401 23.401 0 01-13.681-5.458h5.142c1.774 0 1.774-2.75 0-2.75h-7.906a23.234 23.234 0 01-3.479-5.5h9.405c1.774 0 1.774-2.75 0-2.75h-10.45c-.55-1.788-.88-3.63-.99-5.5h9.583c1.774 0 1.774-2.75 0-2.75h-9.584c.11-1.87.439-3.713.99-5.5h10.45c1.774 0 1.774-2.75 0-2.75h-9.405a23.233 23.233 0 013.479-5.5h7.906c1.774 0 1.774-2.75 0-2.75h-5.142A23.401 23.401 0 0141.204 0v2.709c0 1.773 2.75 1.773 2.75 0V0a23.37 23.37 0 0114.15 5.857l-1.912 1.925c-1.25 1.252.688 3.19 1.938 1.94l1.925-1.912a23.364 23.364 0 015.859 14.149zm-11.66-8.346c1.25-1.252-.702-3.204-1.953-1.953l-6.93 6.93c-4.744-2.791-10.367 2.736-7.535 7.535l-1.086 1.1c-1.251 1.251.687 3.19 1.939 1.939l1.1-1.087c4.743 2.792 10.367-2.736 7.535-7.535l6.93-6.93z" fill="currentColor"/></symbol><symbol xmlns="http://www.w3.org/2000/svg" viewBox="0 0 16 16" id="support"><path d="M14 5.71a.165.165 0 000-.043c0-2.757-2.373-5-5.293-5H7.293C4.373.667 2 2.91 2 5.667a.166.166 0 000 .043A1.333 1.333 0 001 7v1.667A1.333 1.333 0 002.333 10H3a4.667 4.667 0 004.667 4.667h.666c2.204 0 3.944-1.493 4.314-2.887.399-.171.75-.44 1.02-.78.235-.304.364-.678.366-1.063A1.333 1.333 0 0015 8.667V7a1.333 1.333 0 00-1-1.29zm-2.333 4.564a1.277 1.277 0 01-1.037 1.256 7.815 7.815 0 01-1.033.12 1 1 0 00-.93-.65h-1.29a1.03 1.03 0 00-1.024.8 1 1 0 00.98 1.2h1.334a1 1 0 00.94-.666 11.174 11.174 0 001.666-.147 3.666 3.666 0 01-2.94 1.48h-.666A3.667 3.667 0 014 10V7h1s.883 0 1-1.11A2.417 2.417 0 008.033 7h3.634v3.274zm1.273-4.607A4 4 0 009 2.334H7a4 4 0 00-3.94 3.333h-.393c0-2.39 2.073-4.333 4.626-4.333h1.414c2.553 0 4.626 1.943 4.626 4.333h-.393z" fill="currentColor"/></symbol><symbol xmlns="http://www.w3.org/2000/svg" viewBox="0 0 47 47" id="guarante"><g clip-path="url(#clip0)"><path fill-rule="evenodd" clip-rule="evenodd" d="M37.107 23.5c0-7.503-6.102-13.608-13.609-13.608-7.502 0-13.609 6.105-13.609 13.608 0 7.504 6.107 13.61 13.61 13.61 7.506 0 13.608-6.106 13.608-13.61zm4.758 0c0 10.127-8.24 18.364-18.367 18.364-10.126 0-18.362-8.237-18.362-18.364 0-10.126 8.236-18.364 18.362-18.364 10.126 0 18.367 8.238 18.367 18.364zm-41.3 4.826a1.632 1.632 0 01-.307-2.118l2.464-3.93a3.145 3.145 0 00.372-2.582L1.837 15.23a1.634 1.634 0 01.89-1.946L6.92 11.31a3.156 3.156 0 001.711-1.972L9.99 4.903a1.628 1.628 0 011.799-1.156l4.597.606a3.146 3.146 0 002.506-.735L22.428.622a1.63 1.63 0 012.138 0l3.542 2.996a3.146 3.146 0 002.506.735l4.597-.606a1.632 1.632 0 011.799 1.156l1.358 4.435a3.148 3.148 0 001.707 1.972l4.198 1.975a1.634 1.634 0 01.89 1.946l-1.257 4.465a3.144 3.144 0 00.372 2.582l2.459 3.93c.44.7.316 1.57-.303 2.118l-3.469 3.077a3.141 3.141 0 00-1.083 2.373l-.055 4.638a1.63 1.63 0 01-1.399 1.617l-4.584.714a3.141 3.141 0 00-2.193 1.41l-2.556 3.873a1.63 1.63 0 01-2.05.602l-4.24-1.877a3.142 3.142 0 00-2.61 0l-4.24 1.877a1.634 1.634 0 01-2.056-.602l-2.551-3.873a3.141 3.141 0 00-2.193-1.41l-4.584-.714a1.627 1.627 0 01-1.4-1.617l-.054-4.638a3.141 3.141 0 00-1.083-2.373l-3.47-3.077zm22.933-20c8.37 0 15.178 6.807 15.178 15.174 0 8.368-6.809 15.176-15.178 15.176-8.364 0-15.173-6.808-15.173-15.176 0-8.367 6.809-15.175 15.173-15.175zM6.7 23.5c0-9.262 7.539-16.797 16.798-16.797 9.264 0 16.798 7.535 16.798 16.797 0 9.263-7.534 16.798-16.798 16.798C14.24 40.298 6.7 32.763 6.7 23.5zm24.782-4.255l-9.617 9.619a.782.782 0 01-1.106 0l-5.24-5.24a.782.782 0 111.106-1.108l4.684 4.686 9.067-9.065a.781.781 0 011.106 0 .78.78 0 010 1.108z" fill="currentColor"/></g><defs><clipPath id="clip0"><path fill="#fff" d="M0 0h47v47H0z"/></clipPath></defs></symbol><symbol xmlns="http://www.w3.org/2000/svg" viewBox="0 0 51 51" id="support_2"><g clip-path="url(#clip0)"><path fill-rule="evenodd" clip-rule="evenodd" d="M30.646 46.342a3.192 3.192 0 00-3.192-3.192h-3.908a3.192 3.192 0 000 6.383h3.908a3.192 3.192 0 003.192-3.191zM6.71 38.112c.533.04 1.178.064 1.826.026a9.06 9.06 0 008.889 7.307h1.217a4.987 4.987 0 000 1.793h-1.217A10.853 10.853 0 016.71 38.112zm-.912-1.908A6.953 6.953 0 010 29.347v-4.238a6.954 6.954 0 016.954-6.954h.463C8.157 8.816 15.97 1.468 25.5 1.468c9.53 0 17.343 7.348 18.083 16.687h.463A6.954 6.954 0 0151 25.11v4.238a6.954 6.954 0 01-6.954 6.954h-2.052c-.85 0-1.54-.69-1.54-1.541V19.608c0-8.258-6.696-14.953-14.954-14.953-8.258 0-14.953 6.695-14.953 14.953V34.76c0 .6-.344 1.121-.846 1.375-1.381.48-3.524.133-3.903.069z" fill="currentColor"/></g><defs><clipPath id="clip0"><path fill="#fff" d="M0 0h51v51H0z"/></clipPath></defs></symbol><symbol xmlns="http://www.w3.org/2000/svg" viewBox="0 0 30 30" id="bankcard"><path d="M28.75 11.25V10A3.75 3.75 0 0025 6.25H5A3.75 3.75 0 001.25 10v1.25h27.5zm-27.5 2.5V20A3.75 3.75 0 005 23.75h20A3.75 3.75 0 0028.75 20v-6.25H1.25zm21.25 5h-5a1.25 1.25 0 010-2.5h5a1.25 1.25 0 010 2.5z" fill="currentColor"/></symbol><symbol xmlns="http://www.w3.org/2000/svg" viewBox="0 0 30 30" id="delivery-truck"><path fill-rule="evenodd" clip-rule="evenodd" d="M21.387 6.27c2.6.604 3.596 2.125 4.843 4.218h-4.843V6.27zm-15.2 4.394c.508 0 .878.246.878.82a.879.879 0 01-.876.88H.879a.879.879 0 000 1.757h7.91a.879.879 0 11.004 1.758H.879a.879.879 0 100 1.758h1.933v2.636c0 .486.394.88.88.88h1.766a3.37 3.37 0 006.603 0h8.924a3.37 3.37 0 006.604 0h1.532a.879.879 0 00.879-.88V15c0-2.579-2.72-2.75-2.723-2.754h-6.77a.879.879 0 01-.878-.879V6.094H3.69a.879.879 0 00-.878.879v1.933H1.758a.879.879 0 100 1.758h4.428zm19.24 8.675c.629.63.629 1.65 0 2.28-1.013 1.011-2.751.291-2.751-1.14 0-1.432 1.738-2.152 2.75-1.14zm-15.528 0c.63.63.63 1.65 0 2.28-1.012 1.011-2.75.291-2.75-1.14 0-1.432 1.738-2.152 2.75-1.14z" fill="currentColor"/></symbol><symbol fill="none" xmlns="http://www.w3.org/2000/svg" viewBox="0 0 20 20" id="cross"><g clip-path="url(#clip0)"><path d="M13.386 10.002l5.912-5.912A2.395 2.395 0 1015.912.703L10 6.616 4.088.703A2.395 2.395 0 00.702 4.09l5.911 5.912-5.911 5.911A2.394 2.394 0 104.088 19.3L10 13.388l5.912 5.912c.467.468 1.08.701 1.693.701s1.226-.233 1.693-.7a2.395 2.395 0 000-3.388l-5.912-5.912z" fill="currentColor"/></g><defs><clipPath id="clip0"><path fill="#fff" d="M0 0h20v20H0z"/></clipPath></defs></symbol><symbol fill="none" xmlns="http://www.w3.org/2000/svg" viewBox="0 0 19 19" id="cross_2"><path d="M18.093.907a1.105 1.105 0 00-1.568 0L9.5 7.933 2.475.907a1.105 1.105 0 00-1.568 0 1.105 1.105 0 000 1.568L7.932 9.5.907 16.525a1.105 1.105 0 000 1.568c.214.213.5.328.78.328.279 0 .566-.107.78-.328l7.025-7.025 7.025 7.025c.213.213.5.328.78.328.287 0 .566-.107.78-.328a1.105 1.105 0 000-1.568L11.066 9.5l7.026-7.025a1.105 1.105 0 000-1.568z" fill="#000" fill-opacity=".3"/></symbol></svg>