<svg width="16" height="16" fill="none" xmlns="http://www.w3.org/2000/svg"><path d="M14 5.71a.165.165 0 000-.043c0-2.757-2.373-5-5.293-5H7.293C4.373.667 2 2.91 2 5.667a.166.166 0 000 .043A1.333 1.333 0 001 7v1.667A1.333 1.333 0 002.333 10H3a4.667 4.667 0 004.667 4.667h.666c2.204 0 3.944-1.493 4.314-2.887.399-.171.75-.44 1.02-.78.235-.304.364-.678.366-1.063A1.333 1.333 0 0015 8.667V7a1.333 1.333 0 00-1-1.29zm-2.333 4.564a1.277 1.277 0 01-1.037 1.256 7.815 7.815 0 01-1.033.12 1 1 0 00-.93-.65h-1.29a1.03 1.03 0 00-1.024.8 1 1 0 00.98 1.2h1.334a1 1 0 00.94-.666 11.174 11.174 0 001.666-.147 3.666 3.666 0 01-2.94 1.48h-.666A3.667 3.667 0 014 10V7h1s.883 0 1-1.11A2.417 2.417 0 008.033 7h3.634v3.274zm1.273-4.607A4 4 0 009 2.334H7a4 4 0 00-3.94 3.333h-.393c0-2.39 2.073-4.333 4.626-4.333h1.414c2.553 0 4.626 1.943 4.626 4.333h-.393z" fill="#F8B006"/></svg>