<svg width="51" height="51" fill="none" xmlns="http://www.w3.org/2000/svg"><g clip-path="url(#clip0)"><path fill-rule="evenodd" clip-rule="evenodd" d="M30.646 46.342a3.192 3.192 0 00-3.192-3.192h-3.908a3.192 3.192 0 000 6.383h3.908a3.192 3.192 0 003.192-3.191zM6.71 38.112c.533.04 1.178.064 1.826.026a9.06 9.06 0 008.889 7.307h1.217a4.987 4.987 0 000 1.793h-1.217A10.853 10.853 0 016.71 38.112zm-.912-1.908A6.953 6.953 0 010 29.347v-4.238a6.954 6.954 0 016.954-6.954h.463C8.157 8.816 15.97 1.468 25.5 1.468c9.53 0 17.343 7.348 18.083 16.687h.463A6.954 6.954 0 0151 25.11v4.238a6.954 6.954 0 01-6.954 6.954h-2.052c-.85 0-1.54-.69-1.54-1.541V19.608c0-8.258-6.696-14.953-14.954-14.953-8.258 0-14.953 6.695-14.953 14.953V34.76c0 .6-.344 1.121-.846 1.375-1.381.48-3.524.133-3.903.069z" fill="#F8B006"/></g><defs><clipPath id="clip0"><path fill="#fff" d="M0 0h51v51H0z"/></clipPath></defs></svg>